Coordinates
version=1
nRows=11
nColumns=26
inDegrees=yes

Units are S.I. units (second, meters, Newtons, ...)
Angles are in degrees.

endheader
time	pelvis_tilt	pelvis_list	pelvis_rotation	pelvis_tx	pelvis_ty	pelvis_tz	hip_flexion_r	hip_adduction_r	hip_rotation_r	knee_angle_r	knee_angle_r_beta	ankle_angle_r	subtalar_angle_r	mtp_angle_r	hip_flexion_l	hip_adduction_l	hip_rotation_l	knee_angle_l	knee_angle_l_beta	ankle_angle_l	subtalar_angle_l	mtp_angle_l	lumbar_extension	lumbar_bending	lumbar_rotation
    217.06970050	    -17.27189383	      1.39003042	     -4.32924572	     -0.04310979	      1.00468088	      0.25505002	     41.76203316	      5.01749578	     -4.88672123	     15.16094852	     15.16094852	      8.93653580	      6.38607575	      0.00000000	     -3.84876798	      7.46912807	     -0.15981722	     49.41312098	     49.41312098	    -19.30533127	    -12.88503828	      0.00000000	      4.84574687	      0.58479361	     -7.73233319
    217.07970050	    -16.86091194	      1.08633279	     -4.53798876	     -0.04212845	      0.99849264	      0.25288161	     41.62428411	      5.33319495	     -4.71274179	     18.23793218	     18.23793218	      4.82780873	      3.69134614	      0.00000000	     -1.71563639	      7.04614125	     -0.37100371	     55.64361866	     55.64361866	    -18.48057710	    -12.43837771	      0.00000000	      4.00588335	      1.19826472	     -7.61901881
    217.08970050	    -16.51728083	      0.64899491	     -4.69349743	     -0.04171275	      0.99141375	      0.25094532	     41.88746732	      5.71443853	     -4.66049204	     22.34214099	     22.34214099	      1.25394820	      0.48688482	      0.00000000	      0.64618098	      6.25991129	     -0.79342983	     61.90129788	     61.90129788	    -17.19493504	    -12.42967796	      0.00000000	      3.18535409	      1.89416684	     -7.31752288
    217.09970050	    -16.63723778	     -0.27558243	     -4.94080983	     -0.04275480	      0.98354776	      0.24998422	     43.08769514	      6.85885062	     -3.82851905	     27.46234628	     27.46234628	      1.61960441	     -3.01095580	      0.00000000	      3.75867174	      4.55193070	     -1.52509738	     68.34735427	     68.34735427	    -15.48688778	    -12.58485787	      0.00000000	      2.69000433	      3.08415442	     -6.79640233
    217.10970050	    -16.48155436	     -1.22912375	     -5.22019248	     -0.04395010	      0.97586018	      0.24934384	     44.51215994	      8.06097037	     -3.20811944	     34.09811944	     34.09811944	      4.19050737	     -5.57598158	      0.00000000	      6.60875109	      2.69036328	     -2.10733732	     74.37787231	     74.37787231	    -14.04696190	    -13.08648661	      0.00000000	      1.83988878	      4.22354746	     -6.11540900
    217.11970050	    -15.92953755	     -1.90032988	     -5.37898276	     -0.04475868	      0.96889909	      0.24834946	     45.15383297	      8.79244728	     -2.68003366	     40.21601009	     40.21601009	      6.82018868	     -7.64436701	      0.00000000	      9.06957870	      1.24278283	     -2.32181142	     79.79734169	     79.79734169	    -13.26990884	    -14.26976012	      0.00000000	      0.60002872	      4.97693340	     -5.20400558
    217.12970050	    -15.43265136	     -2.47425197	     -5.27387695	     -0.04563455	      0.96264072	      0.24725076	     44.92455244	      9.35304063	     -1.96701231	     44.67400948	     44.67400948	      9.33896725	     -9.16271530	      0.00000000	     11.75807802	     -0.02909945	     -1.98724571	     84.75905449	     84.75905449	    -12.64217278	    -15.43319832	      0.00000000	     -0.50239583	      5.51368599	     -4.50241437
    217.13970050	    -15.25104150	     -2.98797009	     -4.81931228	     -0.04667669	      0.95682913	      0.24579362	     44.22516259	      9.63452546	     -1.68800475	     47.84208244	     47.84208244	     12.32821886	     -9.55248222	      0.00000000	     15.04236831	     -1.18311992	     -1.15053528	     89.35370984	     89.35370984	    -11.98872591	    -16.43650747	      0.00000000	     -1.15966870	      5.95818266	     -4.09593743
    217.14970050	    -15.46140915	     -3.41993746	     -4.08473475	     -0.04774239	      0.95128899	      0.24414520	     43.27263536	      9.75796362	     -1.83022754	     49.90300835	     49.90300835	     15.56593427	     -9.89777968	      0.00000000	     18.98604199	     -2.05600294	      0.20365538	     93.53165587	     93.53165587	    -11.14957871	    -17.26175177	      0.00000000	     -1.24037619	      6.31019675	     -3.99127394
    217.15970050	    -16.11421919	     -3.88396811	     -3.21238305	     -0.04883744	      0.94616939	      0.24234617	     42.43754197	      9.81499224	     -2.31145774	     51.31724789	     51.31724789	     18.42872346	    -10.15790714	      0.00000000	     23.58691730	     -2.77568973	      1.91248425	     97.22661741	     97.22661741	     -9.76056227	    -17.58363946	      0.00000000	     -0.71162255	      6.74643131	     -3.95755604
    217.16970050	    -16.84537067	     -4.37529093	     -2.34406033	     -0.04962596	      0.94215498	      0.24048727	     41.42327945	      9.93551325	     -2.66853081	     52.24044107	     52.24044107	     20.78463948	    -10.39894834	      0.00000000	     28.24848424	     -3.22415326	      3.76798963	    100.12796280	    100.12796280	     -8.51485494	    -17.63016149	      0.00000000	      0.02304350	      7.22964130	     -3.67056571
